<mxfile host="app.diagrams.net" modified="2024-06-18T14:05:04.947Z" agent="Mozilla/5.0 (Windows NT 10.0; Win64; x64) AppleWebKit/537.36 (KHTML, like Gecko) Chrome/125.0.0.0 Safari/537.36" version="24.5.4" etag="HzBts5bNB30LG7X5GPOJ" type="github">
  <diagram name="Seite-1" id="0VJdLC_J9bLSd-ELZ-hq">
    <mxGraphModel>
      <root>
        <mxCell id="0" />
        <mxCell id="1" parent="0" />
      </root>
    </mxGraphModel>
  </diagram>
</mxfile>
